# xmcd
#
# Track frame offsets:
#	150
#	17320
#	35190
#	55342
#	76050
#	98075
#	113837
#	140472
#	164617
#	185840
#	206545
#	225095
#
# Disc length: 3438 seconds
#
# Revision: 21
# Processed by: cddbd v1.5.2PL0 Copyright (c) Steve Scherf et al.
# Submitted via: Jack! The Knife 20 Magnifico
#
DISCID=950d6c0c
DTITLE=Bunbury - Pequeño
DYEAR=1999
DGENRE=Rock
TTITLE0=Algo en Común
TTITLE1=Infinito
TTITLE2=El Extranjero
TTITLE3=Sólo si me Perdonas
TTITLE4=El Viento a Favor
TTITLE5=Lejos de la Tristeza
TTITLE6=¿Dudar?, Quizás
TTITLE7=Demasiado Tarde
TTITLE8=De Mayor
TTITLE9=Bailando con el Enemigo
TTITLE10=Robinson
TTITLE11=Contradictorio
EXTD=
EXTT0=Enrique Bunbury
EXTT1=Enrique Bunbury
EXTT2=Enrique Bunbury
EXTT3=Enrique Bunbury
EXTT4=Enrique Bunbury
EXTT5=Enrique Bunbury
EXTT6=Enrique Bunbury
EXTT7=Enrique Bunbury
EXTT8=Enrique Bunbury
EXTT9=Enrique Bunbury
EXTT10=Enrique Bunbury
EXTT11=Enrique Bunbury
PLAYORDER=
